<?xml version="1.0" encoding="utf-8" standalone="no"?>
<!DOCTYPE svg PUBLIC "-//W3C//DTD SVG 1.1//EN"
  "http://www.w3.org/Graphics/SVG/1.1/DTD/svg11.dtd">
<!-- Created with matplotlib (https://matplotlib.org/) -->
<svg height="360pt" version="1.1" viewBox="0 0 1236.77 360" width="1236.77pt" xmlns="http://www.w3.org/2000/svg" xmlns:xlink="http://www.w3.org/1999/xlink">
 <metadata>
  <rdf:RDF xmlns:cc="http://creativecommons.org/ns#" xmlns:dc="http://purl.org/dc/elements/1.1/" xmlns:rdf="http://www.w3.org/1999/02/22-rdf-syntax-ns#">
   <cc:Work>
    <dc:type rdf:resource="http://purl.org/dc/dcmitype/StillImage"/>
    <dc:date>2021-03-30T16:46:18.072907</dc:date>
    <dc:format>image/svg+xml</dc:format>
    <dc:creator>
     <cc:Agent>
      <dc:title>Matplotlib v3.3.4, https://matplotlib.org/</dc:title>
     </cc:Agent>
    </dc:creator>
   </cc:Work>
  </rdf:RDF>
 </metadata>
 <defs>
  <style type="text/css">*{stroke-linecap:butt;stroke-linejoin:round;}</style>
 </defs>
 <g id="figure_1">
  <g id="patch_1">
   <path d="M 0 360
L 1236.77 360
L 1236.77 0
L 0 0
z
" style="fill:#ffffff;"/>
  </g>
  <g id="axes_1">
   <g id="patch_2">
    <path d="M 61.8385 306
L 386.505237 306
L 386.505237 32.552
L 61.8385 32.552
z
" style="fill:#ffffff;"/>
   </g>
   <g id="matplotlib.axis_1">
    <g id="xtick_1">
     <g id="line2d_1">
      <path clip-path="url(#p1800580016)" d="M 70.572577 306
L 70.572577 32.552
" style="fill:none;stroke:#cccccc;stroke-linecap:round;stroke-width:0.8;"/>
     </g>
     <g id="text_1">
      <!-- 0.0 -->
      <g style="fill:#262626;" transform="translate(61.398577 323.748312)scale(0.132 -0.132)">
       <defs>
        <path d="M 4.15625 35.296875
Q 4.15625 48 6.765625 55.734375
Q 9.375 63.484375 14.515625 67.671875
Q 19.671875 71.875 27.484375 71.875
Q 33.25 71.875 37.59375 69.546875
Q 41.9375 67.234375 44.765625 62.859375
Q 47.609375 58.5 49.21875 52.21875
Q 50.828125 45.953125 50.828125 35.296875
Q 50.828125 22.703125 48.234375 14.96875
Q 45.65625 7.234375 40.5 3
Q 35.359375 -1.21875 27.484375 -1.21875
Q 17.140625 -1.21875 11.234375 6.203125
Q 4.15625 15.140625 4.15625 35.296875
z
M 13.1875 35.296875
Q 13.1875 17.671875 17.3125 11.828125
Q 21.4375 6 27.484375 6
Q 33.546875 6 37.671875 11.859375
Q 41.796875 17.71875 41.796875 35.296875
Q 41.796875 52.984375 37.671875 58.78125
Q 33.546875 64.59375 27.390625 64.59375
Q 21.34375 64.59375 17.71875 59.46875
Q 13.1875 52.9375 13.1875 35.296875
z
" id="ArialMT-48"/>
        <path d="M 9.078125 0
L 9.078125 10.015625
L 19.09375 10.015625
L 19.09375 0
z
" id="ArialMT-46"/>
       </defs>
       <use xlink:href="#ArialMT-48"/>
       <use x="55.615234" xlink:href="#ArialMT-46"/>
       <use x="83.398438" xlink:href="#ArialMT-48"/>
      </g>
     </g>
    </g>
    <g id="xtick_2">
     <g id="line2d_2">
      <path clip-path="url(#p1800580016)" d="M 130.807593 306
L 130.807593 32.552
" style="fill:none;stroke:#cccccc;stroke-linecap:round;stroke-width:0.8;"/>
     </g>
     <g id="text_2">
      <!-- 0.1 -->
      <g style="fill:#262626;" transform="translate(121.633593 323.748312)scale(0.132 -0.132)">
       <defs>
        <path d="M 37.25 0
L 28.46875 0
L 28.46875 56
Q 25.296875 52.984375 20.140625 49.953125
Q 14.984375 46.921875 10.890625 45.40625
L 10.890625 53.90625
Q 18.265625 57.375 23.78125 62.296875
Q 29.296875 67.234375 31.59375 71.875
L 37.25 71.875
z
" id="ArialMT-49"/>
       </defs>
       <use xlink:href="#ArialMT-48"/>
       <use x="55.615234" xlink:href="#ArialMT-46"/>
       <use x="83.398438" xlink:href="#ArialMT-49"/>
      </g>
     </g>
    </g>
    <g id="xtick_3">
     <g id="line2d_3">
      <path clip-path="url(#p1800580016)" d="M 191.04261 306
L 191.04261 32.552
" style="fill:none;stroke:#cccccc;stroke-linecap:round;stroke-width:0.8;"/>
     </g>
     <g id="text_3">
      <!-- 0.2 -->
      <g style="fill:#262626;" transform="translate(181.86861 323.748312)scale(0.132 -0.132)">
       <defs>
        <path d="M 50.34375 8.453125
L 50.34375 0
L 3.03125 0
Q 2.9375 3.171875 4.046875 6.109375
Q 5.859375 10.9375 9.828125 15.625
Q 13.8125 20.3125 21.34375 26.46875
Q 33.015625 36.03125 37.109375 41.625
Q 41.21875 47.21875 41.21875 52.203125
Q 41.21875 57.421875 37.46875 61
Q 33.734375 64.59375 27.734375 64.59375
Q 21.390625 64.59375 17.578125 60.78125
Q 13.765625 56.984375 13.71875 50.25
L 4.6875 51.171875
Q 5.609375 61.28125 11.65625 66.578125
Q 17.71875 71.875 27.9375 71.875
Q 38.234375 71.875 44.234375 66.15625
Q 50.25 60.453125 50.25 52
Q 50.25 47.703125 48.484375 43.546875
Q 46.734375 39.40625 42.65625 34.8125
Q 38.578125 30.21875 29.109375 22.21875
Q 21.1875 15.578125 18.9375 13.203125
Q 16.703125 10.84375 15.234375 8.453125
z
" id="ArialMT-50"/>
       </defs>
       <use xlink:href="#ArialMT-48"/>
       <use x="55.615234" xlink:href="#ArialMT-46"/>
       <use x="83.398438" xlink:href="#ArialMT-50"/>
      </g>
     </g>
    </g>
    <g id="xtick_4">
     <g id="line2d_4">
      <path clip-path="url(#p1800580016)" d="M 251.277626 306
L 251.277626 32.552
" style="fill:none;stroke:#cccccc;stroke-linecap:round;stroke-width:0.8;"/>
     </g>
     <g id="text_4">
      <!-- 0.3 -->
      <g style="fill:#262626;" transform="translate(242.103626 323.748312)scale(0.132 -0.132)">
       <defs>
        <path d="M 4.203125 18.890625
L 12.984375 20.0625
Q 14.5 12.59375 18.140625 9.296875
Q 21.78125 6 27 6
Q 33.203125 6 37.46875 10.296875
Q 41.75 14.59375 41.75 20.953125
Q 41.75 27 37.796875 30.921875
Q 33.84375 34.859375 27.734375 34.859375
Q 25.25 34.859375 21.53125 33.890625
L 22.515625 41.609375
Q 23.390625 41.5 23.921875 41.5
Q 29.546875 41.5 34.03125 44.421875
Q 38.53125 47.359375 38.53125 53.46875
Q 38.53125 58.296875 35.25 61.46875
Q 31.984375 64.65625 26.8125 64.65625
Q 21.6875 64.65625 18.265625 61.421875
Q 14.84375 58.203125 13.875 51.765625
L 5.078125 53.328125
Q 6.6875 62.15625 12.390625 67.015625
Q 18.109375 71.875 26.609375 71.875
Q 32.46875 71.875 37.390625 69.359375
Q 42.328125 66.84375 44.9375 62.5
Q 47.5625 58.15625 47.5625 53.265625
Q 47.5625 48.640625 45.0625 44.828125
Q 42.578125 41.015625 37.703125 38.765625
Q 44.046875 37.3125 47.5625 32.6875
Q 51.078125 28.078125 51.078125 21.140625
Q 51.078125 11.765625 44.234375 5.25
Q 37.40625 -1.265625 26.953125 -1.265625
Q 17.53125 -1.265625 11.296875 4.34375
Q 5.078125 9.96875 4.203125 18.890625
z
" id="ArialMT-51"/>
       </defs>
       <use xlink:href="#ArialMT-48"/>
       <use x="55.615234" xlink:href="#ArialMT-46"/>
       <use x="83.398438" xlink:href="#ArialMT-51"/>
      </g>
     </g>
    </g>
    <g id="xtick_5">
     <g id="line2d_5">
      <path clip-path="url(#p1800580016)" d="M 311.512642 306
L 311.512642 32.552
" style="fill:none;stroke:#cccccc;stroke-linecap:round;stroke-width:0.8;"/>
     </g>
     <g id="text_5">
      <!-- 0.4 -->
      <g style="fill:#262626;" transform="translate(302.338642 323.748312)scale(0.132 -0.132)">
       <defs>
        <path d="M 32.328125 0
L 32.328125 17.140625
L 1.265625 17.140625
L 1.265625 25.203125
L 33.9375 71.578125
L 41.109375 71.578125
L 41.109375 25.203125
L 50.78125 25.203125
L 50.78125 17.140625
L 41.109375 17.140625
L 41.109375 0
z
M 32.328125 25.203125
L 32.328125 57.46875
L 9.90625 25.203125
z
" id="ArialMT-52"/>
       </defs>
       <use xlink:href="#ArialMT-48"/>
       <use x="55.615234" xlink:href="#ArialMT-46"/>
       <use x="83.398438" xlink:href="#ArialMT-52"/>
      </g>
     </g>
    </g>
    <g id="xtick_6">
     <g id="line2d_6">
      <path clip-path="url(#p1800580016)" d="M 371.747658 306
L 371.747658 32.552
" style="fill:none;stroke:#cccccc;stroke-linecap:round;stroke-width:0.8;"/>
     </g>
     <g id="text_6">
      <!-- 0.5 -->
      <g style="fill:#262626;" transform="translate(362.573658 323.748312)scale(0.132 -0.132)">
       <defs>
        <path d="M 4.15625 18.75
L 13.375 19.53125
Q 14.40625 12.796875 18.140625 9.390625
Q 21.875 6 27.15625 6
Q 33.5 6 37.890625 10.78125
Q 42.28125 15.578125 42.28125 23.484375
Q 42.28125 31 38.0625 35.34375
Q 33.84375 39.703125 27 39.703125
Q 22.75 39.703125 19.328125 37.765625
Q 15.921875 35.84375 13.96875 32.765625
L 5.71875 33.84375
L 12.640625 70.609375
L 48.25 70.609375
L 48.25 62.203125
L 19.671875 62.203125
L 15.828125 42.96875
Q 22.265625 47.46875 29.34375 47.46875
Q 38.71875 47.46875 45.15625 40.96875
Q 51.609375 34.46875 51.609375 24.265625
Q 51.609375 14.546875 45.953125 7.46875
Q 39.0625 -1.21875 27.15625 -1.21875
Q 17.390625 -1.21875 11.203125 4.25
Q 5.03125 9.71875 4.15625 18.75
z
" id="ArialMT-53"/>
       </defs>
       <use xlink:href="#ArialMT-48"/>
       <use x="55.615234" xlink:href="#ArialMT-46"/>
       <use x="83.398438" xlink:href="#ArialMT-53"/>
      </g>
     </g>
    </g>
    <g id="text_7">
     <!-- Missing Fraction -->
     <g style="fill:#262626;" transform="translate(171.760368 340.679062)scale(0.144 -0.144)">
      <defs>
       <path d="M 7.421875 0
L 7.421875 71.578125
L 21.6875 71.578125
L 38.625 20.90625
Q 40.96875 13.8125 42.046875 10.296875
Q 43.265625 14.203125 45.84375 21.78125
L 62.984375 71.578125
L 75.734375 71.578125
L 75.734375 0
L 66.609375 0
L 66.609375 59.90625
L 45.796875 0
L 37.25 0
L 16.546875 60.9375
L 16.546875 0
z
" id="ArialMT-77"/>
       <path d="M 6.640625 61.46875
L 6.640625 71.578125
L 15.4375 71.578125
L 15.4375 61.46875
z
M 6.640625 0
L 6.640625 51.859375
L 15.4375 51.859375
L 15.4375 0
z
" id="ArialMT-105"/>
       <path d="M 3.078125 15.484375
L 11.765625 16.84375
Q 12.5 11.625 15.84375 8.84375
Q 19.1875 6.0625 25.203125 6.0625
Q 31.25 6.0625 34.171875 8.515625
Q 37.109375 10.984375 37.109375 14.3125
Q 37.109375 17.28125 34.515625 19
Q 32.71875 20.171875 25.53125 21.96875
Q 15.875 24.421875 12.140625 26.203125
Q 8.40625 27.984375 6.46875 31.125
Q 4.546875 34.28125 4.546875 38.09375
Q 4.546875 41.546875 6.125 44.5
Q 7.71875 47.46875 10.453125 49.421875
Q 12.5 50.921875 16.03125 51.96875
Q 19.578125 53.03125 23.640625 53.03125
Q 29.734375 53.03125 34.34375 51.265625
Q 38.96875 49.515625 41.15625 46.5
Q 43.359375 43.5 44.1875 38.484375
L 35.59375 37.3125
Q 35.015625 41.3125 32.203125 43.546875
Q 29.390625 45.796875 24.265625 45.796875
Q 18.21875 45.796875 15.625 43.796875
Q 13.03125 41.796875 13.03125 39.109375
Q 13.03125 37.40625 14.109375 36.03125
Q 15.1875 34.625 17.484375 33.6875
Q 18.796875 33.203125 25.25 31.453125
Q 34.578125 28.953125 38.25 27.359375
Q 41.9375 25.78125 44.03125 22.75
Q 46.140625 19.734375 46.140625 15.234375
Q 46.140625 10.84375 43.578125 6.953125
Q 41.015625 3.078125 36.171875 0.953125
Q 31.34375 -1.171875 25.25 -1.171875
Q 15.140625 -1.171875 9.84375 3.03125
Q 4.546875 7.234375 3.078125 15.484375
z
" id="ArialMT-115"/>
       <path d="M 6.59375 0
L 6.59375 51.859375
L 14.5 51.859375
L 14.5 44.484375
Q 20.21875 53.03125 31 53.03125
Q 35.6875 53.03125 39.625 51.34375
Q 43.5625 49.65625 45.515625 46.921875
Q 47.46875 44.1875 48.25 40.4375
Q 48.734375 37.984375 48.734375 31.890625
L 48.734375 0
L 39.9375 0
L 39.9375 31.546875
Q 39.9375 36.921875 38.90625 39.578125
Q 37.890625 42.234375 35.28125 43.8125
Q 32.671875 45.40625 29.15625 45.40625
Q 23.53125 45.40625 19.453125 41.84375
Q 15.375 38.28125 15.375 28.328125
L 15.375 0
z
" id="ArialMT-110"/>
       <path d="M 4.984375 -4.296875
L 13.53125 -5.5625
Q 14.0625 -9.515625 16.5 -11.328125
Q 19.78125 -13.765625 25.4375 -13.765625
Q 31.546875 -13.765625 34.859375 -11.328125
Q 38.1875 -8.890625 39.359375 -4.5
Q 40.046875 -1.8125 39.984375 6.78125
Q 34.234375 0 25.640625 0
Q 14.9375 0 9.078125 7.71875
Q 3.21875 15.4375 3.21875 26.21875
Q 3.21875 33.640625 5.90625 39.90625
Q 8.59375 46.1875 13.6875 49.609375
Q 18.796875 53.03125 25.6875 53.03125
Q 34.859375 53.03125 40.828125 45.609375
L 40.828125 51.859375
L 48.921875 51.859375
L 48.921875 7.03125
Q 48.921875 -5.078125 46.453125 -10.125
Q 44 -15.1875 38.640625 -18.109375
Q 33.296875 -21.046875 25.484375 -21.046875
Q 16.21875 -21.046875 10.5 -16.875
Q 4.78125 -12.703125 4.984375 -4.296875
z
M 12.25 26.859375
Q 12.25 16.65625 16.296875 11.96875
Q 20.359375 7.28125 26.46875 7.28125
Q 32.515625 7.28125 36.609375 11.9375
Q 40.71875 16.609375 40.71875 26.5625
Q 40.71875 36.078125 36.5 40.90625
Q 32.28125 45.75 26.3125 45.75
Q 20.453125 45.75 16.34375 40.984375
Q 12.25 36.234375 12.25 26.859375
z
" id="ArialMT-103"/>
       <path id="ArialMT-32"/>
       <path d="M 8.203125 0
L 8.203125 71.578125
L 56.5 71.578125
L 56.5 63.140625
L 17.671875 63.140625
L 17.671875 40.96875
L 51.265625 40.96875
L 51.265625 32.515625
L 17.671875 32.515625
L 17.671875 0
z
" id="ArialMT-70"/>
       <path d="M 6.5 0
L 6.5 51.859375
L 14.40625 51.859375
L 14.40625 44
Q 17.4375 49.515625 20 51.265625
Q 22.5625 53.03125 25.640625 53.03125
Q 30.078125 53.03125 34.671875 50.203125
L 31.640625 42.046875
Q 28.421875 43.953125 25.203125 43.953125
Q 22.3125 43.953125 20.015625 42.21875
Q 17.71875 40.484375 16.75 37.40625
Q 15.28125 32.71875 15.28125 27.15625
L 15.28125 0
z
" id="ArialMT-114"/>
       <path d="M 40.4375 6.390625
Q 35.546875 2.25 31.03125 0.53125
Q 26.515625 -1.171875 21.34375 -1.171875
Q 12.796875 -1.171875 8.203125 3
Q 3.609375 7.171875 3.609375 13.671875
Q 3.609375 17.484375 5.34375 20.625
Q 7.078125 23.78125 9.890625 25.6875
Q 12.703125 27.59375 16.21875 28.5625
Q 18.796875 29.25 24.03125 29.890625
Q 34.671875 31.15625 39.703125 32.90625
Q 39.75 34.71875 39.75 35.203125
Q 39.75 40.578125 37.25 42.78125
Q 33.890625 45.75 27.25 45.75
Q 21.046875 45.75 18.09375 43.578125
Q 15.140625 41.40625 13.71875 35.890625
L 5.125 37.0625
Q 6.296875 42.578125 8.984375 45.96875
Q 11.671875 49.359375 16.75 51.1875
Q 21.828125 53.03125 28.515625 53.03125
Q 35.15625 53.03125 39.296875 51.46875
Q 43.453125 49.90625 45.40625 47.53125
Q 47.359375 45.171875 48.140625 41.546875
Q 48.578125 39.3125 48.578125 33.453125
L 48.578125 21.734375
Q 48.578125 9.46875 49.140625 6.21875
Q 49.703125 2.984375 51.375 0
L 42.1875 0
Q 40.828125 2.734375 40.4375 6.390625
z
M 39.703125 26.03125
Q 34.90625 24.078125 25.34375 22.703125
Q 19.921875 21.921875 17.671875 20.9375
Q 15.4375 19.96875 14.203125 18.09375
Q 12.984375 16.21875 12.984375 13.921875
Q 12.984375 10.40625 15.640625 8.0625
Q 18.3125 5.71875 23.4375 5.71875
Q 28.515625 5.71875 32.46875 7.9375
Q 36.421875 10.15625 38.28125 14.015625
Q 39.703125 17 39.703125 22.796875
z
" id="ArialMT-97"/>
       <path d="M 40.4375 19
L 49.078125 17.875
Q 47.65625 8.9375 41.8125 3.875
Q 35.984375 -1.171875 27.484375 -1.171875
Q 16.84375 -1.171875 10.375 5.78125
Q 3.90625 12.75 3.90625 25.734375
Q 3.90625 34.125 6.6875 40.421875
Q 9.46875 46.734375 15.15625 49.875
Q 20.84375 53.03125 27.546875 53.03125
Q 35.984375 53.03125 41.359375 48.75
Q 46.734375 44.484375 48.25 36.625
L 39.703125 35.296875
Q 38.484375 40.53125 35.375 43.15625
Q 32.28125 45.796875 27.875 45.796875
Q 21.234375 45.796875 17.078125 41.03125
Q 12.9375 36.28125 12.9375 25.984375
Q 12.9375 15.53125 16.9375 10.796875
Q 20.953125 6.0625 27.390625 6.0625
Q 32.5625 6.0625 36.03125 9.234375
Q 39.5 12.40625 40.4375 19
z
" id="ArialMT-99"/>
       <path d="M 25.78125 7.859375
L 27.046875 0.09375
Q 23.34375 -0.6875 20.40625 -0.6875
Q 15.625 -0.6875 12.984375 0.828125
Q 10.359375 2.34375 9.28125 4.8125
Q 8.203125 7.28125 8.203125 15.1875
L 8.203125 45.015625
L 1.765625 45.015625
L 1.765625 51.859375
L 8.203125 51.859375
L 8.203125 64.703125
L 16.9375 69.96875
L 16.9375 51.859375
L 25.78125 51.859375
L 25.78125 45.015625
L 16.9375 45.015625
L 16.9375 14.703125
Q 16.9375 10.9375 17.40625 9.859375
Q 17.875 8.796875 18.921875 8.15625
Q 19.96875 7.515625 21.921875 7.515625
Q 23.390625 7.515625 25.78125 7.859375
z
" id="ArialMT-116"/>
       <path d="M 3.328125 25.921875
Q 3.328125 40.328125 11.328125 47.265625
Q 18.015625 53.03125 27.640625 53.03125
Q 38.328125 53.03125 45.109375 46.015625
Q 51.90625 39.015625 51.90625 26.65625
Q 51.90625 16.65625 48.90625 10.90625
Q 45.90625 5.171875 40.15625 2
Q 34.421875 -1.171875 27.640625 -1.171875
Q 16.75 -1.171875 10.03125 5.8125
Q 3.328125 12.796875 3.328125 25.921875
z
M 12.359375 25.921875
Q 12.359375 15.96875 16.703125 11.015625
Q 21.046875 6.0625 27.640625 6.0625
Q 34.1875 6.0625 38.53125 11.03125
Q 42.875 16.015625 42.875 26.21875
Q 42.875 35.84375 38.5 40.796875
Q 34.125 45.75 27.640625 45.75
Q 21.046875 45.75 16.703125 40.8125
Q 12.359375 35.890625 12.359375 25.921875
z
" id="ArialMT-111"/>
      </defs>
      <use xlink:href="#ArialMT-77"/>
      <use x="83.300781" xlink:href="#ArialMT-105"/>
      <use x="105.517578" xlink:href="#ArialMT-115"/>
      <use x="155.517578" xlink:href="#ArialMT-115"/>
      <use x="205.517578" xlink:href="#ArialMT-105"/>
      <use x="227.734375" xlink:href="#ArialMT-110"/>
      <use x="283.349609" xlink:href="#ArialMT-103"/>
      <use x="338.964844" xlink:href="#ArialMT-32"/>
      <use x="366.748047" xlink:href="#ArialMT-70"/>
      <use x="427.832031" xlink:href="#ArialMT-114"/>
      <use x="461.132812" xlink:href="#ArialMT-97"/>
      <use x="516.748047" xlink:href="#ArialMT-99"/>
      <use x="566.748047" xlink:href="#ArialMT-116"/>
      <use x="594.53125" xlink:href="#ArialMT-105"/>
      <use x="616.748047" xlink:href="#ArialMT-111"/>
      <use x="672.363281" xlink:href="#ArialMT-110"/>
     </g>
    </g>
   </g>
   <g id="matplotlib.axis_2">
    <g id="ytick_1">
     <g id="line2d_7">
      <path clip-path="url(#p1800580016)" d="M 61.8385 280.847482
L 386.505237 280.847482
" style="fill:none;stroke:#cccccc;stroke-linecap:round;stroke-width:0.8;"/>
     </g>
     <g id="text_8">
      <!-- 2 -->
      <g style="fill:#262626;" transform="translate(46.198062 285.571638)scale(0.132 -0.132)">
       <use xlink:href="#ArialMT-50"/>
      </g>
     </g>
    </g>
    <g id="ytick_2">
     <g id="line2d_8">
      <path clip-path="url(#p1800580016)" d="M 61.8385 222.125649
L 386.505237 222.125649
" style="fill:none;stroke:#cccccc;stroke-linecap:round;stroke-width:0.8;"/>
     </g>
     <g id="text_9">
      <!-- 3 -->
      <g style="fill:#262626;" transform="translate(46.198062 226.849805)scale(0.132 -0.132)">
       <use xlink:href="#ArialMT-51"/>
      </g>
     </g>
    </g>
    <g id="ytick_3">
     <g id="line2d_9">
      <path clip-path="url(#p1800580016)" d="M 61.8385 163.403817
L 386.505237 163.403817
" style="fill:none;stroke:#cccccc;stroke-linecap:round;stroke-width:0.8;"/>
     </g>
     <g id="text_10">
      <!-- 4 -->
      <g style="fill:#262626;" transform="translate(46.198062 168.127973)scale(0.132 -0.132)">
       <use xlink:href="#ArialMT-52"/>
      </g>
     </g>
    </g>
    <g id="ytick_4">
     <g id="line2d_10">
      <path clip-path="url(#p1800580016)" d="M 61.8385 104.681984
L 386.505237 104.681984
" style="fill:none;stroke:#cccccc;stroke-linecap:round;stroke-width:0.8;"/>
     </g>
     <g id="text_11">
      <!-- 5 -->
      <g style="fill:#262626;" transform="translate(46.198062 109.406141)scale(0.132 -0.132)">
       <use xlink:href="#ArialMT-53"/>
      </g>
     </g>
    </g>
    <g id="ytick_5">
     <g id="line2d_11">
      <path clip-path="url(#p1800580016)" d="M 61.8385 45.960152
L 386.505237 45.960152
" style="fill:none;stroke:#cccccc;stroke-linecap:round;stroke-width:0.8;"/>
     </g>
     <g id="text_12">
      <!-- 6 -->
      <g style="fill:#262626;" transform="translate(46.198062 50.684308)scale(0.132 -0.132)">
       <defs>
        <path d="M 49.75 54.046875
L 41.015625 53.375
Q 39.84375 58.546875 37.703125 60.890625
Q 34.125 64.65625 28.90625 64.65625
Q 24.703125 64.65625 21.53125 62.3125
Q 17.390625 59.28125 14.984375 53.46875
Q 12.59375 47.65625 12.5 36.921875
Q 15.671875 41.75 20.265625 44.09375
Q 24.859375 46.4375 29.890625 46.4375
Q 38.671875 46.4375 44.84375 39.96875
Q 51.03125 33.5 51.03125 23.25
Q 51.03125 16.5 48.125 10.71875
Q 45.21875 4.9375 40.140625 1.859375
Q 35.0625 -1.21875 28.609375 -1.21875
Q 17.625 -1.21875 10.6875 6.859375
Q 3.765625 14.9375 3.765625 33.5
Q 3.765625 54.25 11.421875 63.671875
Q 18.109375 71.875 29.4375 71.875
Q 37.890625 71.875 43.28125 67.140625
Q 48.6875 62.40625 49.75 54.046875
z
M 13.875 23.1875
Q 13.875 18.65625 15.796875 14.5
Q 17.71875 10.359375 21.1875 8.171875
Q 24.65625 6 28.46875 6
Q 34.03125 6 38.03125 10.484375
Q 42.046875 14.984375 42.046875 22.703125
Q 42.046875 30.125 38.078125 34.390625
Q 34.125 38.671875 28.125 38.671875
Q 22.171875 38.671875 18.015625 34.390625
Q 13.875 30.125 13.875 23.1875
z
" id="ArialMT-54"/>
       </defs>
       <use xlink:href="#ArialMT-54"/>
      </g>
     </g>
    </g>
    <g id="text_13">
     <!-- Imputation Rank -->
     <g style="fill:#262626;" transform="translate(39.336062 221.701)rotate(-90)scale(0.144 -0.144)">
      <defs>
       <path d="M 9.328125 0
L 9.328125 71.578125
L 18.796875 71.578125
L 18.796875 0
z
" id="ArialMT-73"/>
       <path d="M 6.59375 0
L 6.59375 51.859375
L 14.453125 51.859375
L 14.453125 44.578125
Q 16.890625 48.390625 20.9375 50.703125
Q 25 53.03125 30.171875 53.03125
Q 35.9375 53.03125 39.625 50.640625
Q 43.3125 48.25 44.828125 43.953125
Q 50.984375 53.03125 60.84375 53.03125
Q 68.5625 53.03125 72.703125 48.75
Q 76.859375 44.484375 76.859375 35.59375
L 76.859375 0
L 68.109375 0
L 68.109375 32.671875
Q 68.109375 37.9375 67.25 40.25
Q 66.40625 42.578125 64.15625 43.984375
Q 61.921875 45.40625 58.890625 45.40625
Q 53.421875 45.40625 49.796875 41.765625
Q 46.1875 38.140625 46.1875 30.125
L 46.1875 0
L 37.40625 0
L 37.40625 33.6875
Q 37.40625 39.546875 35.25 42.46875
Q 33.109375 45.40625 28.21875 45.40625
Q 24.515625 45.40625 21.359375 43.453125
Q 18.21875 41.5 16.796875 37.734375
Q 15.375 33.984375 15.375 26.90625
L 15.375 0
z
" id="ArialMT-109"/>
       <path d="M 6.59375 -19.875
L 6.59375 51.859375
L 14.59375 51.859375
L 14.59375 45.125
Q 17.4375 49.078125 21 51.046875
Q 24.5625 53.03125 29.640625 53.03125
Q 36.28125 53.03125 41.359375 49.609375
Q 46.4375 46.1875 49.015625 39.953125
Q 51.609375 33.734375 51.609375 26.3125
Q 51.609375 18.359375 48.75 11.984375
Q 45.90625 5.609375 40.453125 2.21875
Q 35.015625 -1.171875 29 -1.171875
Q 24.609375 -1.171875 21.109375 0.6875
Q 17.625 2.546875 15.375 5.375
L 15.375 -19.875
z
M 14.546875 25.640625
Q 14.546875 15.625 18.59375 10.84375
Q 22.65625 6.0625 28.421875 6.0625
Q 34.28125 6.0625 38.453125 11.015625
Q 42.625 15.96875 42.625 26.375
Q 42.625 36.28125 38.546875 41.203125
Q 34.46875 46.140625 28.8125 46.140625
Q 23.1875 46.140625 18.859375 40.890625
Q 14.546875 35.640625 14.546875 25.640625
z
" id="ArialMT-112"/>
       <path d="M 40.578125 0
L 40.578125 7.625
Q 34.515625 -1.171875 24.125 -1.171875
Q 19.53125 -1.171875 15.546875 0.578125
Q 11.578125 2.34375 9.640625 5
Q 7.71875 7.671875 6.9375 11.53125
Q 6.390625 14.109375 6.390625 19.734375
L 6.390625 51.859375
L 15.1875 51.859375
L 15.1875 23.09375
Q 15.1875 16.21875 15.71875 13.8125
Q 16.546875 10.359375 19.234375 8.375
Q 21.921875 6.390625 25.875 6.390625
Q 29.828125 6.390625 33.296875 8.421875
Q 36.765625 10.453125 38.203125 13.9375
Q 39.65625 17.4375 39.65625 24.078125
L 39.65625 51.859375
L 48.4375 51.859375
L 48.4375 0
z
" id="ArialMT-117"/>
       <path d="M 7.859375 0
L 7.859375 71.578125
L 39.59375 71.578125
Q 49.171875 71.578125 54.140625 69.640625
Q 59.125 67.71875 62.109375 62.828125
Q 65.09375 57.953125 65.09375 52.046875
Q 65.09375 44.4375 60.15625 39.203125
Q 55.21875 33.984375 44.921875 32.5625
Q 48.6875 30.765625 50.640625 29
Q 54.78125 25.203125 58.5 19.484375
L 70.953125 0
L 59.03125 0
L 49.5625 14.890625
Q 45.40625 21.34375 42.71875 24.75
Q 40.046875 28.171875 37.921875 29.53125
Q 35.796875 30.90625 33.59375 31.453125
Q 31.984375 31.78125 28.328125 31.78125
L 17.328125 31.78125
L 17.328125 0
z
M 17.328125 39.984375
L 37.703125 39.984375
Q 44.1875 39.984375 47.84375 41.328125
Q 51.515625 42.671875 53.421875 45.625
Q 55.328125 48.578125 55.328125 52.046875
Q 55.328125 57.125 51.640625 60.390625
Q 47.953125 63.671875 39.984375 63.671875
L 17.328125 63.671875
z
" id="ArialMT-82"/>
       <path d="M 6.640625 0
L 6.640625 71.578125
L 15.4375 71.578125
L 15.4375 30.765625
L 36.234375 51.859375
L 47.609375 51.859375
L 27.78125 32.625
L 49.609375 0
L 38.765625 0
L 21.625 26.515625
L 15.4375 20.5625
L 15.4375 0
z
" id="ArialMT-107"/>
      </defs>
      <use xlink:href="#ArialMT-73"/>
      <use x="27.783203" xlink:href="#ArialMT-109"/>
      <use x="111.083984" xlink:href="#ArialMT-112"/>
      <use x="166.699219" xlink:href="#ArialMT-117"/>
      <use x="222.314453" xlink:href="#ArialMT-116"/>
      <use x="250.097656" xlink:href="#ArialMT-97"/>
      <use x="305.712891" xlink:href="#ArialMT-116"/>
      <use x="333.496094" xlink:href="#ArialMT-105"/>
      <use x="355.712891" xlink:href="#ArialMT-111"/>
      <use x="411.328125" xlink:href="#ArialMT-110"/>
      <use x="466.943359" xlink:href="#ArialMT-32"/>
      <use x="494.726562" xlink:href="#ArialMT-82"/>
      <use x="566.943359" xlink:href="#ArialMT-97"/>
      <use x="622.558594" xlink:href="#ArialMT-110"/>
      <use x="678.173828" xlink:href="#ArialMT-107"/>
     </g>
    </g>
   </g>
   <g id="PolyCollection_1">
    <defs>
     <path d="M 76.596079 -129.912068
L 76.596079 -93.086512
L 130.807593 -100.124601
L 251.277626 -94.376697
L 371.747658 -82.540316
L 371.747658 -115.289031
L 371.747658 -115.289031
L 251.277626 -129.17482
L 130.807593 -132.63133
L 76.596079 -129.912068
z
" id="m0d19b49228" style="stroke:#4c72b0;stroke-opacity:0.2;stroke-width:0.8;"/>
    </defs>
    <g clip-path="url(#p1800580016)">
     <use style="fill:#4c72b0;fill-opacity:0.2;stroke:#4c72b0;stroke-opacity:0.2;stroke-width:0.8;" x="0" xlink:href="#m0d19b49228" y="360"/>
    </g>
   </g>
   <g id="PolyCollection_2">
    <defs>
     <path d="M 76.596079 -248.467135
L 76.596079 -205.404458
L 130.807593 -207.361853
L 251.277626 -205.404458
L 371.747658 -199.532275
L 371.747658 -242.643887
L 371.747658 -242.643887
L 251.277626 -249.445832
L 130.807593 -247.488438
L 76.596079 -248.467135
z
" id="mad1ddb0118" style="stroke:#dd8452;stroke-opacity:0.2;stroke-width:0.8;"/>
    </defs>
    <g clip-path="url(#p1800580016)">
     <use style="fill:#dd8452;fill-opacity:0.2;stroke:#dd8452;stroke-opacity:0.2;stroke-width:0.8;" x="0" xlink:href="#mad1ddb0118" y="360"/>
    </g>
   </g>
   <g id="PolyCollection_3">
    <defs>
     <path d="M 76.596079 -125.151287
L 76.596079 -82.039675
L 130.807593 -69.365546
L 251.277626 -74.259032
L 371.747658 -66.429455
L 371.747658 -102.641251
L 371.747658 -102.641251
L 251.277626 -115.364315
L 130.807593 -108.513435
L 76.596079 -125.151287
z
" id="m3fef97816f" style="stroke:#55a868;stroke-opacity:0.2;stroke-width:0.8;"/>
    </defs>
    <g clip-path="url(#p1800580016)">
     <use style="fill:#55a868;fill-opacity:0.2;stroke:#55a868;stroke-opacity:0.2;stroke-width:0.8;" x="0" xlink:href="#m3fef97816f" y="360"/>
    </g>
   </g>
   <g id="PolyCollection_4">
    <defs>
     <path d="M 76.596079 -271.955868
L 76.596079 -234.765374
L 130.807593 -223.021008
L 251.277626 -237.701466
L 371.747658 -244.552346
L 371.747658 -277.828052
L 371.747658 -277.828052
L 251.277626 -268.041079
L 130.807593 -262.168896
L 76.596079 -271.955868
z
" id="m008925a891" style="stroke:#c44e52;stroke-opacity:0.2;stroke-width:0.8;"/>
    </defs>
    <g clip-path="url(#p1800580016)">
     <use style="fill:#c44e52;fill-opacity:0.2;stroke:#c44e52;stroke-opacity:0.2;stroke-width:0.8;" x="0" xlink:href="#m008925a891" y="360"/>
    </g>
   </g>
   <g id="PolyCollection_5">
    <defs>
     <path d="M 76.596079 -169.192661
L 76.596079 -128.087379
L 130.807593 -113.406921
L 251.277626 -110.470829
L 371.747658 -118.300407
L 371.747658 -151.576112
L 371.747658 -151.576112
L 251.277626 -145.703928
L 130.807593 -153.533506
L 76.596079 -169.192661
z
" id="mf8943932d1" style="stroke:#8172b3;stroke-opacity:0.2;stroke-width:0.8;"/>
    </defs>
    <g clip-path="url(#p1800580016)">
     <use style="fill:#8172b3;fill-opacity:0.2;stroke:#8172b3;stroke-opacity:0.2;stroke-width:0.8;" x="0" xlink:href="#mf8943932d1" y="360"/>
    </g>
   </g>
   <g id="PolyCollection_6">
    <defs>
     <path d="M 76.596079 -257.27541
L 76.596079 -216.170127
L 130.807593 -232.80798
L 251.277626 -223.95077
L 371.747658 -231.829283
L 371.747658 -266.083685
L 371.747658 -266.083685
L 251.277626 -261.190199
L 130.807593 -273.913263
L 76.596079 -257.27541
z
" id="mf48b79bcdf" style="stroke:#937860;stroke-opacity:0.2;stroke-width:0.8;"/>
    </defs>
    <g clip-path="url(#p1800580016)">
     <use style="fill:#937860;fill-opacity:0.2;stroke:#937860;stroke-opacity:0.2;stroke-width:0.8;" x="0" xlink:href="#mf48b79bcdf" y="360"/>
    </g>
   </g>
   <g id="PolyCollection_7">
    <defs>
     <path d="M 76.596079 -312.082454
L 76.596079 -268.041079
L 130.807593 -276.800419
L 251.277626 -270.977171
L 371.747658 -270.928236
L 371.747658 -311.152691
L 371.747658 -311.152691
L 251.277626 -311.103757
L 130.807593 -315.018545
L 76.596079 -312.082454
z
" id="maf06d34877" style="stroke:#da8bc3;stroke-opacity:0.2;stroke-width:0.8;"/>
    </defs>
    <g clip-path="url(#p1800580016)">
     <use style="fill:#da8bc3;fill-opacity:0.2;stroke:#da8bc3;stroke-opacity:0.2;stroke-width:0.8;" x="0" xlink:href="#maf06d34877" y="360"/>
    </g>
   </g>
   <g id="line2d_12">
    <path clip-path="url(#p1800580016)" d="M 76.596079 248.003067
L 130.807593 243.097732
L 251.277626 248.224241
L 371.747658 261.64996
" style="fill:none;stroke:#4c72b0;stroke-linecap:round;stroke-width:2;"/>
   </g>
   <g id="line2d_13">
    <path clip-path="url(#p1800580016)" d="M 76.596079 133.064203
L 130.807593 132.085506
L 251.277626 132.085506
L 371.747658 138.936387
" style="fill:none;stroke:#dd8452;stroke-dasharray:8,3;stroke-dashoffset:0;stroke-width:2;"/>
   </g>
   <g id="line2d_14">
    <path clip-path="url(#p1800580016)" d="M 76.596079 257.358749
L 130.807593 272.039207
L 251.277626 265.188326
L 371.747658 275.953996
" style="fill:none;stroke:#55a868;stroke-dasharray:2,2;stroke-dashoffset:0;stroke-width:2;"/>
   </g>
   <g id="line2d_15">
    <path clip-path="url(#p1800580016)" d="M 76.596079 106.639379
L 130.807593 116.426351
L 251.277626 106.639379
L 371.747658 98.809801
" style="fill:none;stroke:#c44e52;stroke-dasharray:6,2.5,3,2.5;stroke-dashoffset:0;stroke-width:2;"/>
   </g>
   <g id="line2d_16">
    <path clip-path="url(#p1800580016)" d="M 76.596079 212.338677
L 130.807593 227.019135
L 251.277626 232.891319
L 371.747658 226.040438
" style="fill:none;stroke:#8172b3;stroke-dasharray:10,2,2,2;stroke-dashoffset:0;stroke-width:2;"/>
   </g>
   <g id="line2d_17">
    <path clip-path="url(#p1800580016)" d="M 76.596079 122.298534
L 130.807593 106.639379
L 251.277626 116.426351
L 371.747658 110.554168
" style="fill:none;stroke:#937860;stroke-dasharray:6,2.5,2.5,2.5,2.5,2.5;stroke-dashoffset:0;stroke-width:2;"/>
   </g>
   <g id="line2d_18">
    <path clip-path="url(#p1800580016)" d="M 76.596079 69.448885
L 130.807593 64.555399
L 251.277626 68.470188
L 371.747658 68.470188
" style="fill:none;stroke:#da8bc3;stroke-dasharray:8,2,8,2,2,2;stroke-dashoffset:0;stroke-width:2;"/>
   </g>
   <g id="line2d_19"/>
   <g id="line2d_20"/>
   <g id="line2d_21"/>
   <g id="line2d_22"/>
   <g id="line2d_23"/>
   <g id="line2d_24"/>
   <g id="line2d_25"/>
   <g id="patch_3">
    <path d="M 61.8385 306
L 61.8385 32.552
" style="fill:none;stroke:#cccccc;stroke-linecap:square;stroke-linejoin:miter;"/>
   </g>
   <g id="patch_4">
    <path d="M 61.8385 306
L 386.505237 306
" style="fill:none;stroke:#cccccc;stroke-linecap:square;stroke-linejoin:miter;"/>
   </g>
   <g id="text_14">
    <!-- Missing Type = MCAR -->
    <g style="fill:#262626;" transform="translate(152.878368 26.552)scale(0.144 -0.144)">
     <defs>
      <path d="M 25.921875 0
L 25.921875 63.140625
L 2.34375 63.140625
L 2.34375 71.578125
L 59.078125 71.578125
L 59.078125 63.140625
L 35.40625 63.140625
L 35.40625 0
z
" id="ArialMT-84"/>
      <path d="M 6.203125 -19.96875
L 5.21875 -11.71875
Q 8.109375 -12.5 10.25 -12.5
Q 13.1875 -12.5 14.9375 -11.515625
Q 16.703125 -10.546875 17.828125 -8.796875
Q 18.65625 -7.46875 20.515625 -2.25
Q 20.75 -1.515625 21.296875 -0.09375
L 1.609375 51.859375
L 11.078125 51.859375
L 21.875 21.828125
Q 23.96875 16.109375 25.640625 9.8125
Q 27.15625 15.875 29.25 21.625
L 40.328125 51.859375
L 49.125 51.859375
L 29.390625 -0.875
Q 26.21875 -9.421875 24.46875 -12.640625
Q 22.125 -17 19.09375 -19.015625
Q 16.0625 -21.046875 11.859375 -21.046875
Q 9.328125 -21.046875 6.203125 -19.96875
z
" id="ArialMT-121"/>
      <path d="M 42.09375 16.703125
L 51.171875 15.578125
Q 49.03125 7.625 43.21875 3.21875
Q 37.40625 -1.171875 28.375 -1.171875
Q 17 -1.171875 10.328125 5.828125
Q 3.65625 12.84375 3.65625 25.484375
Q 3.65625 38.578125 10.390625 45.796875
Q 17.140625 53.03125 27.875 53.03125
Q 38.28125 53.03125 44.875 45.953125
Q 51.46875 38.875 51.46875 26.03125
Q 51.46875 25.25 51.421875 23.6875
L 12.75 23.6875
Q 13.234375 15.140625 17.578125 10.59375
Q 21.921875 6.0625 28.421875 6.0625
Q 33.25 6.0625 36.671875 8.59375
Q 40.09375 11.140625 42.09375 16.703125
z
M 13.234375 30.90625
L 42.1875 30.90625
Q 41.609375 37.453125 38.875 40.71875
Q 34.671875 45.796875 27.984375 45.796875
Q 21.921875 45.796875 17.796875 41.75
Q 13.671875 37.703125 13.234375 30.90625
z
" id="ArialMT-101"/>
      <path d="M 52.828125 42.09375
L 5.5625 42.09375
L 5.5625 50.296875
L 52.828125 50.296875
z
M 52.828125 20.359375
L 5.5625 20.359375
L 5.5625 28.5625
L 52.828125 28.5625
z
" id="ArialMT-61"/>
      <path d="M 58.796875 25.09375
L 68.265625 22.703125
Q 65.28125 11.03125 57.546875 4.90625
Q 49.8125 -1.21875 38.625 -1.21875
Q 27.046875 -1.21875 19.796875 3.484375
Q 12.546875 8.203125 8.765625 17.140625
Q 4.984375 26.078125 4.984375 36.328125
Q 4.984375 47.515625 9.25 55.828125
Q 13.53125 64.15625 21.40625 68.46875
Q 29.296875 72.796875 38.765625 72.796875
Q 49.515625 72.796875 56.828125 67.328125
Q 64.15625 61.859375 67.046875 51.953125
L 57.71875 49.75
Q 55.21875 57.5625 50.484375 61.125
Q 45.75 64.703125 38.578125 64.703125
Q 30.328125 64.703125 24.78125 60.734375
Q 19.234375 56.78125 16.984375 50.109375
Q 14.75 43.453125 14.75 36.375
Q 14.75 27.25 17.40625 20.4375
Q 20.0625 13.625 25.671875 10.25
Q 31.296875 6.890625 37.84375 6.890625
Q 45.796875 6.890625 51.3125 11.46875
Q 56.84375 16.0625 58.796875 25.09375
z
" id="ArialMT-67"/>
      <path d="M -0.140625 0
L 27.34375 71.578125
L 37.546875 71.578125
L 66.84375 0
L 56.0625 0
L 47.703125 21.6875
L 17.78125 21.6875
L 9.90625 0
z
M 20.515625 29.390625
L 44.78125 29.390625
L 37.3125 49.21875
Q 33.890625 58.25 32.234375 64.0625
Q 30.859375 57.171875 28.375 50.390625
z
" id="ArialMT-65"/>
     </defs>
     <use xlink:href="#ArialMT-77"/>
     <use x="83.300781" xlink:href="#ArialMT-105"/>
     <use x="105.517578" xlink:href="#ArialMT-115"/>
     <use x="155.517578" xlink:href="#ArialMT-115"/>
     <use x="205.517578" xlink:href="#ArialMT-105"/>
     <use x="227.734375" xlink:href="#ArialMT-110"/>
     <use x="283.349609" xlink:href="#ArialMT-103"/>
     <use x="338.964844" xlink:href="#ArialMT-32"/>
     <use x="364.998047" xlink:href="#ArialMT-84"/>
     <use x="420.582031" xlink:href="#ArialMT-121"/>
     <use x="470.582031" xlink:href="#ArialMT-112"/>
     <use x="526.197266" xlink:href="#ArialMT-101"/>
     <use x="581.8125" xlink:href="#ArialMT-32"/>
     <use x="609.595703" xlink:href="#ArialMT-61"/>
     <use x="667.994141" xlink:href="#ArialMT-32"/>
     <use x="695.777344" xlink:href="#ArialMT-77"/>
     <use x="779.078125" xlink:href="#ArialMT-67"/>
     <use x="851.294922" xlink:href="#ArialMT-65"/>
     <use x="917.994141" xlink:href="#ArialMT-82"/>
    </g>
   </g>
  </g>
  <g id="axes_2">
   <g id="patch_5">
    <path d="M 402.402032 306
L 727.068768 306
L 727.068768 32.552
L 402.402032 32.552
z
" style="fill:#ffffff;"/>
   </g>
   <g id="matplotlib.axis_3">
    <g id="xtick_7">
     <g id="line2d_26">
      <path clip-path="url(#p4001228f08)" d="M 411.136109 306
L 411.136109 32.552
" style="fill:none;stroke:#cccccc;stroke-linecap:round;stroke-width:0.8;"/>
     </g>
     <g id="text_15">
      <!-- 0.0 -->
      <g style="fill:#262626;" transform="translate(401.962109 323.748312)scale(0.132 -0.132)">
       <use xlink:href="#ArialMT-48"/>
       <use x="55.615234" xlink:href="#ArialMT-46"/>
       <use x="83.398438" xlink:href="#ArialMT-48"/>
      </g>
     </g>
    </g>
    <g id="xtick_8">
     <g id="line2d_27">
      <path clip-path="url(#p4001228f08)" d="M 471.371125 306
L 471.371125 32.552
" style="fill:none;stroke:#cccccc;stroke-linecap:round;stroke-width:0.8;"/>
     </g>
     <g id="text_16">
      <!-- 0.1 -->
      <g style="fill:#262626;" transform="translate(462.197125 323.748312)scale(0.132 -0.132)">
       <use xlink:href="#ArialMT-48"/>
       <use x="55.615234" xlink:href="#ArialMT-46"/>
       <use x="83.398438" xlink:href="#ArialMT-49"/>
      </g>
     </g>
    </g>
    <g id="xtick_9">
     <g id="line2d_28">
      <path clip-path="url(#p4001228f08)" d="M 531.606141 306
L 531.606141 32.552
" style="fill:none;stroke:#cccccc;stroke-linecap:round;stroke-width:0.8;"/>
     </g>
     <g id="text_17">
      <!-- 0.2 -->
      <g style="fill:#262626;" transform="translate(522.432141 323.748312)scale(0.132 -0.132)">
       <use xlink:href="#ArialMT-48"/>
       <use x="55.615234" xlink:href="#ArialMT-46"/>
       <use x="83.398438" xlink:href="#ArialMT-50"/>
      </g>
     </g>
    </g>
    <g id="xtick_10">
     <g id="line2d_29">
      <path clip-path="url(#p4001228f08)" d="M 591.841157 306
L 591.841157 32.552
" style="fill:none;stroke:#cccccc;stroke-linecap:round;stroke-width:0.8;"/>
     </g>
     <g id="text_18">
      <!-- 0.3 -->
      <g style="fill:#262626;" transform="translate(582.667157 323.748312)scale(0.132 -0.132)">
       <use xlink:href="#ArialMT-48"/>
       <use x="55.615234" xlink:href="#ArialMT-46"/>
       <use x="83.398438" xlink:href="#ArialMT-51"/>
      </g>
     </g>
    </g>
    <g id="xtick_11">
     <g id="line2d_30">
      <path clip-path="url(#p4001228f08)" d="M 652.076173 306
L 652.076173 32.552
" style="fill:none;stroke:#cccccc;stroke-linecap:round;stroke-width:0.8;"/>
     </g>
     <g id="text_19">
      <!-- 0.4 -->
      <g style="fill:#262626;" transform="translate(642.902173 323.748312)scale(0.132 -0.132)">
       <use xlink:href="#ArialMT-48"/>
       <use x="55.615234" xlink:href="#ArialMT-46"/>
       <use x="83.398438" xlink:href="#ArialMT-52"/>
      </g>
     </g>
    </g>
    <g id="xtick_12">
     <g id="line2d_31">
      <path clip-path="url(#p4001228f08)" d="M 712.31119 306
L 712.31119 32.552
" style="fill:none;stroke:#cccccc;stroke-linecap:round;stroke-width:0.8;"/>
     </g>
     <g id="text_20">
      <!-- 0.5 -->
      <g style="fill:#262626;" transform="translate(703.13719 323.748312)scale(0.132 -0.132)">
       <use xlink:href="#ArialMT-48"/>
       <use x="55.615234" xlink:href="#ArialMT-46"/>
       <use x="83.398438" xlink:href="#ArialMT-53"/>
      </g>
     </g>
    </g>
    <g id="text_21">
     <!-- Missing Fraction -->
     <g style="fill:#262626;" transform="translate(512.3239 340.679062)scale(0.144 -0.144)">
      <use xlink:href="#ArialMT-77"/>
      <use x="83.300781" xlink:href="#ArialMT-105"/>
      <use x="105.517578" xlink:href="#ArialMT-115"/>
      <use x="155.517578" xlink:href="#ArialMT-115"/>
      <use x="205.517578" xlink:href="#ArialMT-105"/>
      <use x="227.734375" xlink:href="#ArialMT-110"/>
      <use x="283.349609" xlink:href="#ArialMT-103"/>
      <use x="338.964844" xlink:href="#ArialMT-32"/>
      <use x="366.748047" xlink:href="#ArialMT-70"/>
      <use x="427.832031" xlink:href="#ArialMT-114"/>
      <use x="461.132812" xlink:href="#ArialMT-97"/>
      <use x="516.748047" xlink:href="#ArialMT-99"/>
      <use x="566.748047" xlink:href="#ArialMT-116"/>
      <use x="594.53125" xlink:href="#ArialMT-105"/>
      <use x="616.748047" xlink:href="#ArialMT-111"/>
      <use x="672.363281" xlink:href="#ArialMT-110"/>
     </g>
    </g>
   </g>
   <g id="matplotlib.axis_4">
    <g id="ytick_6">
     <g id="line2d_32">
      <path clip-path="url(#p4001228f08)" d="M 402.402032 280.847482
L 727.068768 280.847482
" style="fill:none;stroke:#cccccc;stroke-linecap:round;stroke-width:0.8;"/>
     </g>
    </g>
    <g id="ytick_7">
     <g id="line2d_33">
      <path clip-path="url(#p4001228f08)" d="M 402.402032 222.125649
L 727.068768 222.125649
" style="fill:none;stroke:#cccccc;stroke-linecap:round;stroke-width:0.8;"/>
     </g>
    </g>
    <g id="ytick_8">
     <g id="line2d_34">
      <path clip-path="url(#p4001228f08)" d="M 402.402032 163.403817
L 727.068768 163.403817
" style="fill:none;stroke:#cccccc;stroke-linecap:round;stroke-width:0.8;"/>
     </g>
    </g>
    <g id="ytick_9">
     <g id="line2d_35">
      <path clip-path="url(#p4001228f08)" d="M 402.402032 104.681984
L 727.068768 104.681984
" style="fill:none;stroke:#cccccc;stroke-linecap:round;stroke-width:0.8;"/>
     </g>
    </g>
    <g id="ytick_10">
     <g id="line2d_36">
      <path clip-path="url(#p4001228f08)" d="M 402.402032 45.960152
L 727.068768 45.960152
" style="fill:none;stroke:#cccccc;stroke-linecap:round;stroke-width:0.8;"/>
     </g>
    </g>
   </g>
   <g id="PolyCollection_8">
    <defs>
     <path d="M 417.15961 -177.911964
L 417.15961 -125.863067
L 471.371125 -108.513435
L 591.841157 -89.178197
L 712.31119 -94.209398
L 712.31119 -134.938259
L 712.31119 -134.938259
L 591.841157 -127.848672
L 471.371125 -142.068767
L 417.15961 -177.911964
z
" id="m8c8b584a7d" style="stroke:#4c72b0;stroke-opacity:0.2;stroke-width:0.8;"/>
    </defs>
    <g clip-path="url(#p4001228f08)">
     <use style="fill:#4c72b0;fill-opacity:0.2;stroke:#4c72b0;stroke-opacity:0.2;stroke-width:0.8;" x="0" xlink:href="#m8c8b584a7d" y="360"/>
    </g>
   </g>
   <g id="PolyCollection_9">
    <defs>
     <path d="M 417.15961 -242.643887
L 417.15961 -198.553578
L 471.371125 -185.830514
L 591.841157 -187.787908
L 712.31119 -189.696368
L 712.31119 -231.829283
L 712.31119 -231.829283
L 591.841157 -232.80798
L 471.371125 -227.914494
L 417.15961 -242.643887
z
" id="m3cd6bbf8d4" style="stroke:#dd8452;stroke-opacity:0.2;stroke-width:0.8;"/>
    </defs>
    <g clip-path="url(#p4001228f08)">
     <use style="fill:#dd8452;fill-opacity:0.2;stroke:#dd8452;stroke-opacity:0.2;stroke-width:0.8;" x="0" xlink:href="#m3cd6bbf8d4" y="360"/>
    </g>
   </g>
   <g id="PolyCollection_10">
    <defs>
     <path d="M 417.15961 -132.980865
L 417.15961 -91.826647
L 471.371125 -74.176092
L 591.841157 -73.180806
L 712.31119 -74.176092
L 712.31119 -111.001648
L 712.31119 -111.001648
L 591.841157 -112.992218
L 471.371125 -112.992218
L 417.15961 -132.980865
z
" id="mf67e204204" style="stroke:#55a868;stroke-opacity:0.2;stroke-width:0.8;"/>
    </defs>
    <g clip-path="url(#p4001228f08)">
     <use style="fill:#55a868;fill-opacity:0.2;stroke:#55a868;stroke-opacity:0.2;stroke-width:0.8;" x="0" xlink:href="#mf67e204204" y="360"/>
    </g>
   </g>
   <g id="PolyCollection_11">
    <defs>
     <path d="M 417.15961 -246.509741
L 417.15961 -202.468366
L 471.371125 -211.276641
L 591.841157 -200.510972
L 712.31119 -208.34055
L 712.31119 -248.467135
L 712.31119 -248.467135
L 591.841157 -236.771704
L 471.371125 -256.296713
L 417.15961 -246.509741
z
" id="mca7a768e74" style="stroke:#c44e52;stroke-opacity:0.2;stroke-width:0.8;"/>
    </defs>
    <g clip-path="url(#p4001228f08)">
     <use style="fill:#c44e52;fill-opacity:0.2;stroke:#c44e52;stroke-opacity:0.2;stroke-width:0.8;" x="0" xlink:href="#mca7a768e74" y="360"/>
    </g>
   </g>
   <g id="PolyCollection_12">
    <defs>
     <path d="M 417.15961 -138.901983
L 417.15961 -99.656225
L 471.371125 -108.513435
L 591.841157 -113.406921
L 712.31119 -99.70516
L 712.31119 -132.980865
L 712.31119 -132.980865
L 591.841157 -150.646349
L 471.371125 -148.64002
L 417.15961 -138.901983
z
" id="mdac615c034" style="stroke:#8172b3;stroke-opacity:0.2;stroke-width:0.8;"/>
    </defs>
    <g clip-path="url(#p4001228f08)">
     <use style="fill:#8172b3;fill-opacity:0.2;stroke:#8172b3;stroke-opacity:0.2;stroke-width:0.8;" x="0" xlink:href="#mdac615c034" y="360"/>
    </g>
   </g>
   <g id="PolyCollection_13">
    <defs>
     <path d="M 417.15961 -238.680163
L 417.15961 -196.596183
L 471.371125 -213.185101
L 591.841157 -229.871888
L 712.31119 -222.042311
L 712.31119 -261.190199
L 712.31119 -261.190199
L 591.841157 -264.126291
L 471.371125 -252.381924
L 417.15961 -238.680163
z
" id="m56f80008e0" style="stroke:#937860;stroke-opacity:0.2;stroke-width:0.8;"/>
    </defs>
    <g clip-path="url(#p4001228f08)">
     <use style="fill:#937860;fill-opacity:0.2;stroke:#937860;stroke-opacity:0.2;stroke-width:0.8;" x="0" xlink:href="#m56f80008e0" y="360"/>
    </g>
   </g>
   <g id="PolyCollection_14">
    <defs>
     <path d="M 417.15961 -290.153001
L 417.15961 -246.360448
L 471.371125 -257.308586
L 591.841157 -258.303872
L 712.31119 -258.254107
L 712.31119 -295.129428
L 712.31119 -295.129428
L 591.841157 -299.110569
L 471.371125 -296.124713
L 417.15961 -290.153001
z
" id="mc1994f21cc" style="stroke:#da8bc3;stroke-opacity:0.2;stroke-width:0.8;"/>
    </defs>
    <g clip-path="url(#p4001228f08)">
     <use style="fill:#da8bc3;fill-opacity:0.2;stroke:#da8bc3;stroke-opacity:0.2;stroke-width:0.8;" x="0" xlink:href="#mc1994f21cc" y="360"/>
    </g>
   </g>
   <g id="line2d_37">
    <path clip-path="url(#p4001228f08)" d="M 417.15961 208.779778
L 471.371125 234.708899
L 591.841157 250.770446
L 712.31119 246.216657
" style="fill:none;stroke:#4c72b0;stroke-linecap:round;stroke-width:2;"/>
   </g>
   <g id="line2d_38">
    <path clip-path="url(#p4001228f08)" d="M 417.15961 138.936387
L 471.371125 154.595542
L 591.841157 149.702056
L 712.31119 149.702056
" style="fill:none;stroke:#dd8452;stroke-dasharray:8,3;stroke-dashoffset:0;stroke-width:2;"/>
   </g>
   <g id="line2d_39">
    <path clip-path="url(#p4001228f08)" d="M 417.15961 248.550474
L 471.371125 266.913488
L 591.841157 267.908773
L 712.31119 266.913488
" style="fill:none;stroke:#55a868;stroke-dasharray:2,2;stroke-dashoffset:0;stroke-width:2;"/>
   </g>
   <g id="line2d_40">
    <path clip-path="url(#p4001228f08)" d="M 417.15961 135.021598
L 471.371125 126.213323
L 591.841157 140.893781
L 712.31119 131.106809
" style="fill:none;stroke:#c44e52;stroke-dasharray:6,2.5,3,2.5;stroke-dashoffset:0;stroke-width:2;"/>
   </g>
   <g id="line2d_41">
    <path clip-path="url(#p4001228f08)" d="M 417.15961 241.699593
L 471.371125 231.912621
L 591.841157 227.997832
L 712.31119 243.656988
" style="fill:none;stroke:#8172b3;stroke-dasharray:10,2,2,2;stroke-dashoffset:0;stroke-width:2;"/>
   </g>
   <g id="line2d_42">
    <path clip-path="url(#p4001228f08)" d="M 417.15961 142.851175
L 471.371125 127.19202
L 591.841157 113.490259
L 712.31119 118.383745
" style="fill:none;stroke:#937860;stroke-dasharray:6,2.5,2.5,2.5,2.5,2.5;stroke-dashoffset:0;stroke-width:2;"/>
   </g>
   <g id="line2d_43">
    <path clip-path="url(#p4001228f08)" d="M 417.15961 90.74799
L 471.371125 82.785708
L 591.841157 81.790422
L 712.31119 83.780993
" style="fill:none;stroke:#da8bc3;stroke-dasharray:8,2,8,2,2,2;stroke-dashoffset:0;stroke-width:2;"/>
   </g>
   <g id="patch_6">
    <path d="M 402.402032 306
L 402.402032 32.552
" style="fill:none;stroke:#cccccc;stroke-linecap:square;stroke-linejoin:miter;"/>
   </g>
   <g id="patch_7">
    <path d="M 402.402032 306
L 727.068768 306
" style="fill:none;stroke:#cccccc;stroke-linecap:square;stroke-linejoin:miter;"/>
   </g>
   <g id="text_22">
    <!-- Missing Type = MAR -->
    <g style="fill:#262626;" transform="translate(498.64165 26.552)scale(0.144 -0.144)">
     <use xlink:href="#ArialMT-77"/>
     <use x="83.300781" xlink:href="#ArialMT-105"/>
     <use x="105.517578" xlink:href="#ArialMT-115"/>
     <use x="155.517578" xlink:href="#ArialMT-115"/>
     <use x="205.517578" xlink:href="#ArialMT-105"/>
     <use x="227.734375" xlink:href="#ArialMT-110"/>
     <use x="283.349609" xlink:href="#ArialMT-103"/>
     <use x="338.964844" xlink:href="#ArialMT-32"/>
     <use x="364.998047" xlink:href="#ArialMT-84"/>
     <use x="420.582031" xlink:href="#ArialMT-121"/>
     <use x="470.582031" xlink:href="#ArialMT-112"/>
     <use x="526.197266" xlink:href="#ArialMT-101"/>
     <use x="581.8125" xlink:href="#ArialMT-32"/>
     <use x="609.595703" xlink:href="#ArialMT-61"/>
     <use x="667.994141" xlink:href="#ArialMT-32"/>
     <use x="695.777344" xlink:href="#ArialMT-77"/>
     <use x="779.078125" xlink:href="#ArialMT-65"/>
     <use x="845.777344" xlink:href="#ArialMT-82"/>
    </g>
   </g>
  </g>
  <g id="axes_3">
   <g id="patch_8">
    <path d="M 742.965563 306
L 1067.6323 306
L 1067.6323 32.552
L 742.965563 32.552
z
" style="fill:#ffffff;"/>
   </g>
   <g id="matplotlib.axis_5">
    <g id="xtick_13">
     <g id="line2d_44">
      <path clip-path="url(#p109e73a31a)" d="M 751.69964 306
L 751.69964 32.552
" style="fill:none;stroke:#cccccc;stroke-linecap:round;stroke-width:0.8;"/>
     </g>
     <g id="text_23">
      <!-- 0.0 -->
      <g style="fill:#262626;" transform="translate(742.52564 323.748312)scale(0.132 -0.132)">
       <use xlink:href="#ArialMT-48"/>
       <use x="55.615234" xlink:href="#ArialMT-46"/>
       <use x="83.398438" xlink:href="#ArialMT-48"/>
      </g>
     </g>
    </g>
    <g id="xtick_14">
     <g id="line2d_45">
      <path clip-path="url(#p109e73a31a)" d="M 811.934657 306
L 811.934657 32.552
" style="fill:none;stroke:#cccccc;stroke-linecap:round;stroke-width:0.8;"/>
     </g>
     <g id="text_24">
      <!-- 0.1 -->
      <g style="fill:#262626;" transform="translate(802.760657 323.748312)scale(0.132 -0.132)">
       <use xlink:href="#ArialMT-48"/>
       <use x="55.615234" xlink:href="#ArialMT-46"/>
       <use x="83.398438" xlink:href="#ArialMT-49"/>
      </g>
     </g>
    </g>
    <g id="xtick_15">
     <g id="line2d_46">
      <path clip-path="url(#p109e73a31a)" d="M 872.169673 306
L 872.169673 32.552
" style="fill:none;stroke:#cccccc;stroke-linecap:round;stroke-width:0.8;"/>
     </g>
     <g id="text_25">
      <!-- 0.2 -->
      <g style="fill:#262626;" transform="translate(862.995673 323.748312)scale(0.132 -0.132)">
       <use xlink:href="#ArialMT-48"/>
       <use x="55.615234" xlink:href="#ArialMT-46"/>
       <use x="83.398438" xlink:href="#ArialMT-50"/>
      </g>
     </g>
    </g>
    <g id="xtick_16">
     <g id="line2d_47">
      <path clip-path="url(#p109e73a31a)" d="M 932.404689 306
L 932.404689 32.552
" style="fill:none;stroke:#cccccc;stroke-linecap:round;stroke-width:0.8;"/>
     </g>
     <g id="text_26">
      <!-- 0.3 -->
      <g style="fill:#262626;" transform="translate(923.230689 323.748312)scale(0.132 -0.132)">
       <use xlink:href="#ArialMT-48"/>
       <use x="55.615234" xlink:href="#ArialMT-46"/>
       <use x="83.398438" xlink:href="#ArialMT-51"/>
      </g>
     </g>
    </g>
    <g id="xtick_17">
     <g id="line2d_48">
      <path clip-path="url(#p109e73a31a)" d="M 992.639705 306
L 992.639705 32.552
" style="fill:none;stroke:#cccccc;stroke-linecap:round;stroke-width:0.8;"/>
     </g>
     <g id="text_27">
      <!-- 0.4 -->
      <g style="fill:#262626;" transform="translate(983.465705 323.748312)scale(0.132 -0.132)">
       <use xlink:href="#ArialMT-48"/>
       <use x="55.615234" xlink:href="#ArialMT-46"/>
       <use x="83.398438" xlink:href="#ArialMT-52"/>
      </g>
     </g>
    </g>
    <g id="xtick_18">
     <g id="line2d_49">
      <path clip-path="url(#p109e73a31a)" d="M 1052.874721 306
L 1052.874721 32.552
" style="fill:none;stroke:#cccccc;stroke-linecap:round;stroke-width:0.8;"/>
     </g>
     <g id="text_28">
      <!-- 0.5 -->
      <g style="fill:#262626;" transform="translate(1043.700721 323.748312)scale(0.132 -0.132)">
       <use xlink:href="#ArialMT-48"/>
       <use x="55.615234" xlink:href="#ArialMT-46"/>
       <use x="83.398438" xlink:href="#ArialMT-53"/>
      </g>
     </g>
    </g>
    <g id="text_29">
     <!-- Missing Fraction -->
     <g style="fill:#262626;" transform="translate(852.887432 340.679062)scale(0.144 -0.144)">
      <use xlink:href="#ArialMT-77"/>
      <use x="83.300781" xlink:href="#ArialMT-105"/>
      <use x="105.517578" xlink:href="#ArialMT-115"/>
      <use x="155.517578" xlink:href="#ArialMT-115"/>
      <use x="205.517578" xlink:href="#ArialMT-105"/>
      <use x="227.734375" xlink:href="#ArialMT-110"/>
      <use x="283.349609" xlink:href="#ArialMT-103"/>
      <use x="338.964844" xlink:href="#ArialMT-32"/>
      <use x="366.748047" xlink:href="#ArialMT-70"/>
      <use x="427.832031" xlink:href="#ArialMT-114"/>
      <use x="461.132812" xlink:href="#ArialMT-97"/>
      <use x="516.748047" xlink:href="#ArialMT-99"/>
      <use x="566.748047" xlink:href="#ArialMT-116"/>
      <use x="594.53125" xlink:href="#ArialMT-105"/>
      <use x="616.748047" xlink:href="#ArialMT-111"/>
      <use x="672.363281" xlink:href="#ArialMT-110"/>
     </g>
    </g>
   </g>
   <g id="matplotlib.axis_6">
    <g id="ytick_11">
     <g id="line2d_50">
      <path clip-path="url(#p109e73a31a)" d="M 742.965563 280.847482
L 1067.6323 280.847482
" style="fill:none;stroke:#cccccc;stroke-linecap:round;stroke-width:0.8;"/>
     </g>
    </g>
    <g id="ytick_12">
     <g id="line2d_51">
      <path clip-path="url(#p109e73a31a)" d="M 742.965563 222.125649
L 1067.6323 222.125649
" style="fill:none;stroke:#cccccc;stroke-linecap:round;stroke-width:0.8;"/>
     </g>
    </g>
    <g id="ytick_13">
     <g id="line2d_52">
      <path clip-path="url(#p109e73a31a)" d="M 742.965563 163.403817
L 1067.6323 163.403817
" style="fill:none;stroke:#cccccc;stroke-linecap:round;stroke-width:0.8;"/>
     </g>
    </g>
    <g id="ytick_14">
     <g id="line2d_53">
      <path clip-path="url(#p109e73a31a)" d="M 742.965563 104.681984
L 1067.6323 104.681984
" style="fill:none;stroke:#cccccc;stroke-linecap:round;stroke-width:0.8;"/>
     </g>
    </g>
    <g id="ytick_15">
     <g id="line2d_54">
      <path clip-path="url(#p109e73a31a)" d="M 742.965563 45.960152
L 1067.6323 45.960152
" style="fill:none;stroke:#cccccc;stroke-linecap:round;stroke-width:0.8;"/>
     </g>
    </g>
   </g>
   <g id="PolyCollection_15">
    <defs>
     <path d="M 757.723142 -172.628088
L 757.723142 -122.295089
L 811.934657 -130.377947
L 932.404689 -120.002489
L 1052.874721 -140.48421
L 1052.874721 -195.291254
L 1052.874721 -195.291254
L 932.404689 -172.341513
L 811.934657 -184.102176
L 757.723142 -172.628088
z
" id="ma135a3b2ba" style="stroke:#4c72b0;stroke-opacity:0.2;stroke-width:0.8;"/>
    </defs>
    <g clip-path="url(#p109e73a31a)">
     <use style="fill:#4c72b0;fill-opacity:0.2;stroke:#4c72b0;stroke-opacity:0.2;stroke-width:0.8;" x="0" xlink:href="#ma135a3b2ba" y="360"/>
    </g>
   </g>
   <g id="PolyCollection_16">
    <defs>
     <path d="M 757.723142 -222.042311
L 757.723142 -175.064845
L 811.934657 -180.888093
L 932.404689 -177.022239
L 1052.874721 -151.576112
L 1052.874721 -206.383155
L 1052.874721 -206.383155
L 932.404689 -226.935797
L 811.934657 -230.850586
L 757.723142 -222.042311
z
" id="ma55bdbfafd" style="stroke:#dd8452;stroke-opacity:0.2;stroke-width:0.8;"/>
    </defs>
    <g clip-path="url(#p109e73a31a)">
     <use style="fill:#dd8452;fill-opacity:0.2;stroke:#dd8452;stroke-opacity:0.2;stroke-width:0.8;" x="0" xlink:href="#ma55bdbfafd" y="360"/>
    </g>
   </g>
   <g id="PolyCollection_17">
    <defs>
     <path d="M 757.723142 -139.831745
L 757.723142 -103.619948
L 811.934657 -111.449526
L 932.404689 -114.385618
L 1052.874721 -108.513435
L 1052.874721 -149.618717
L 1052.874721 -149.618717
L 932.404689 -161.363084
L 811.934657 -154.561138
L 757.723142 -139.831745
z
" id="m04c315abe3" style="stroke:#55a868;stroke-opacity:0.2;stroke-width:0.8;"/>
    </defs>
    <g clip-path="url(#p109e73a31a)">
     <use style="fill:#55a868;fill-opacity:0.2;stroke:#55a868;stroke-opacity:0.2;stroke-width:0.8;" x="0" xlink:href="#m04c315abe3" y="360"/>
    </g>
   </g>
   <g id="PolyCollection_18">
    <defs>
     <path d="M 757.723142 -240.637558
L 757.723142 -196.596183
L 811.934657 -185.830514
L 932.404689 -193.611157
L 1052.874721 -184.802882
L 1052.874721 -232.80798
L 1052.874721 -232.80798
L 932.404689 -241.616255
L 811.934657 -229.871888
L 757.723142 -240.637558
z
" id="mcf58b18973" style="stroke:#c44e52;stroke-opacity:0.2;stroke-width:0.8;"/>
    </defs>
    <g clip-path="url(#p109e73a31a)">
     <use style="fill:#c44e52;fill-opacity:0.2;stroke:#c44e52;stroke-opacity:0.2;stroke-width:0.8;" x="0" xlink:href="#mcf58b18973" y="360"/>
    </g>
   </g>
   <g id="PolyCollection_19">
    <defs>
     <path d="M 757.723142 -164.299175
L 757.723142 -121.187563
L 811.934657 -129.066076
L 932.404689 -138.853048
L 1052.874721 -136.895654
L 1052.874721 -173.156385
L 1052.874721 -173.156385
L 932.404689 -176.043542
L 811.934657 -167.235267
L 757.723142 -164.299175
z
" id="m46200211da" style="stroke:#8172b3;stroke-opacity:0.2;stroke-width:0.8;"/>
    </defs>
    <g clip-path="url(#p109e73a31a)">
     <use style="fill:#8172b3;fill-opacity:0.2;stroke:#8172b3;stroke-opacity:0.2;stroke-width:0.8;" x="0" xlink:href="#m46200211da" y="360"/>
    </g>
   </g>
   <g id="PolyCollection_20">
    <defs>
     <path d="M 757.723142 -257.27541
L 757.723142 -222.042311
L 811.934657 -189.745303
L 932.404689 -185.830514
L 1052.874721 -202.468366
L 1052.874721 -245.531044
L 1052.874721 -245.531044
L 932.404689 -230.850586
L 811.934657 -234.765374
L 757.723142 -257.27541
z
" id="mf7692f76a3" style="stroke:#937860;stroke-opacity:0.2;stroke-width:0.8;"/>
    </defs>
    <g clip-path="url(#p109e73a31a)">
     <use style="fill:#937860;fill-opacity:0.2;stroke:#937860;stroke-opacity:0.2;stroke-width:0.8;" x="0" xlink:href="#mf7692f76a3" y="360"/>
    </g>
   </g>
   <g id="PolyCollection_21">
    <defs>
     <path d="M 757.723142 -291.529812
L 757.723142 -241.616255
L 811.934657 -240.588623
L 932.404689 -231.829283
L 1052.874721 -239.65886
L 1052.874721 -285.657629
L 1052.874721 -285.657629
L 932.404689 -279.785446
L 811.934657 -286.636326
L 757.723142 -291.529812
z
" id="m88236a3f69" style="stroke:#da8bc3;stroke-opacity:0.2;stroke-width:0.8;"/>
    </defs>
    <g clip-path="url(#p109e73a31a)">
     <use style="fill:#da8bc3;fill-opacity:0.2;stroke:#da8bc3;stroke-opacity:0.2;stroke-width:0.8;" x="0" xlink:href="#m88236a3f69" y="360"/>
    </g>
   </g>
   <g id="line2d_55">
    <path clip-path="url(#p109e73a31a)" d="M 757.723142 212.538411
L 811.934657 203.384639
L 932.404689 214.46628
L 1052.874721 192.112268
" style="fill:none;stroke:#4c72b0;stroke-linecap:round;stroke-width:2;"/>
   </g>
   <g id="line2d_56">
    <path clip-path="url(#p109e73a31a)" d="M 757.723142 160.467725
L 811.934657 153.616845
L 932.404689 158.510331
L 1052.874721 181.020366
" style="fill:none;stroke:#dd8452;stroke-dasharray:8,3;stroke-dashoffset:0;stroke-width:2;"/>
   </g>
   <g id="line2d_57">
    <path clip-path="url(#p109e73a31a)" d="M 757.723142 238.763502
L 811.934657 227.019135
L 932.404689 223.104346
L 1052.874721 231.912621
" style="fill:none;stroke:#55a868;stroke-dasharray:2,2;stroke-dashoffset:0;stroke-width:2;"/>
   </g>
   <g id="line2d_58">
    <path clip-path="url(#p109e73a31a)" d="M 757.723142 140.893781
L 811.934657 151.65945
L 932.404689 142.851175
L 1052.874721 152.638147
" style="fill:none;stroke:#c44e52;stroke-dasharray:6,2.5,3,2.5;stroke-dashoffset:0;stroke-width:2;"/>
   </g>
   <g id="line2d_59">
    <path clip-path="url(#p109e73a31a)" d="M 757.723142 217.232163
L 811.934657 211.35998
L 932.404689 202.551705
L 1052.874721 205.487797
" style="fill:none;stroke:#8172b3;stroke-dasharray:10,2,2,2;stroke-dashoffset:0;stroke-width:2;"/>
   </g>
   <g id="line2d_60">
    <path clip-path="url(#p109e73a31a)" d="M 757.723142 120.34114
L 811.934657 147.744661
L 932.404689 151.65945
L 1052.874721 135.021598
" style="fill:none;stroke:#937860;stroke-dasharray:6,2.5,2.5,2.5,2.5,2.5;stroke-dashoffset:0;stroke-width:2;"/>
   </g>
   <g id="line2d_61">
    <path clip-path="url(#p109e73a31a)" d="M 757.723142 94.895012
L 811.934657 95.873709
L 932.404689 103.703287
L 1052.874721 96.852407
" style="fill:none;stroke:#da8bc3;stroke-dasharray:8,2,8,2,2,2;stroke-dashoffset:0;stroke-width:2;"/>
   </g>
   <g id="patch_9">
    <path d="M 742.965563 306
L 742.965563 32.552
" style="fill:none;stroke:#cccccc;stroke-linecap:square;stroke-linejoin:miter;"/>
   </g>
   <g id="patch_10">
    <path d="M 742.965563 306
L 1067.6323 306
" style="fill:none;stroke:#cccccc;stroke-linecap:square;stroke-linejoin:miter;"/>
   </g>
   <g id="text_30">
    <!-- Missing Type = MNAR -->
    <g style="fill:#262626;" transform="translate(834.005432 26.552)scale(0.144 -0.144)">
     <defs>
      <path d="M 7.625 0
L 7.625 71.578125
L 17.328125 71.578125
L 54.9375 15.375
L 54.9375 71.578125
L 64.015625 71.578125
L 64.015625 0
L 54.296875 0
L 16.703125 56.25
L 16.703125 0
z
" id="ArialMT-78"/>
     </defs>
     <use xlink:href="#ArialMT-77"/>
     <use x="83.300781" xlink:href="#ArialMT-105"/>
     <use x="105.517578" xlink:href="#ArialMT-115"/>
     <use x="155.517578" xlink:href="#ArialMT-115"/>
     <use x="205.517578" xlink:href="#ArialMT-105"/>
     <use x="227.734375" xlink:href="#ArialMT-110"/>
     <use x="283.349609" xlink:href="#ArialMT-103"/>
     <use x="338.964844" xlink:href="#ArialMT-32"/>
     <use x="364.998047" xlink:href="#ArialMT-84"/>
     <use x="420.582031" xlink:href="#ArialMT-121"/>
     <use x="470.582031" xlink:href="#ArialMT-112"/>
     <use x="526.197266" xlink:href="#ArialMT-101"/>
     <use x="581.8125" xlink:href="#ArialMT-32"/>
     <use x="609.595703" xlink:href="#ArialMT-61"/>
     <use x="667.994141" xlink:href="#ArialMT-32"/>
     <use x="695.777344" xlink:href="#ArialMT-77"/>
     <use x="779.078125" xlink:href="#ArialMT-78"/>
     <use x="851.294922" xlink:href="#ArialMT-65"/>
     <use x="917.994141" xlink:href="#ArialMT-82"/>
    </g>
   </g>
  </g>
  <g id="legend_1">
   <g id="text_31">
    <!-- Imputer -->
    <g style="fill:#262626;" transform="translate(1127.462375 118.27125)scale(0.144 -0.144)">
     <use xlink:href="#ArialMT-73"/>
     <use x="27.783203" xlink:href="#ArialMT-109"/>
     <use x="111.083984" xlink:href="#ArialMT-112"/>
     <use x="166.699219" xlink:href="#ArialMT-117"/>
     <use x="222.314453" xlink:href="#ArialMT-116"/>
     <use x="250.097656" xlink:href="#ArialMT-101"/>
     <use x="305.712891" xlink:href="#ArialMT-114"/>
    </g>
   </g>
   <g id="line2d_62">
    <path d="M 1078.8485 132.561563
L 1105.2485 132.561563
" style="fill:none;stroke:#4c72b0;stroke-linecap:round;stroke-width:2;"/>
   </g>
   <g id="line2d_63"/>
   <g id="text_32">
    <!-- AutoKerasImputer -->
    <g style="fill:#262626;" transform="translate(1115.8085 137.181563)scale(0.132 -0.132)">
     <defs>
      <path d="M 7.328125 0
L 7.328125 71.578125
L 16.796875 71.578125
L 16.796875 36.078125
L 52.34375 71.578125
L 65.1875 71.578125
L 35.15625 42.578125
L 66.5 0
L 54 0
L 28.515625 36.234375
L 16.796875 24.8125
L 16.796875 0
z
" id="ArialMT-75"/>
     </defs>
     <use xlink:href="#ArialMT-65"/>
     <use x="66.699219" xlink:href="#ArialMT-117"/>
     <use x="122.314453" xlink:href="#ArialMT-116"/>
     <use x="150.097656" xlink:href="#ArialMT-111"/>
     <use x="205.712891" xlink:href="#ArialMT-75"/>
     <use x="272.412109" xlink:href="#ArialMT-101"/>
     <use x="328.027344" xlink:href="#ArialMT-114"/>
     <use x="361.328125" xlink:href="#ArialMT-97"/>
     <use x="416.943359" xlink:href="#ArialMT-115"/>
     <use x="466.943359" xlink:href="#ArialMT-73"/>
     <use x="494.726562" xlink:href="#ArialMT-109"/>
     <use x="578.027344" xlink:href="#ArialMT-112"/>
     <use x="633.642578" xlink:href="#ArialMT-117"/>
     <use x="689.257812" xlink:href="#ArialMT-116"/>
     <use x="717.041016" xlink:href="#ArialMT-101"/>
     <use x="772.65625" xlink:href="#ArialMT-114"/>
    </g>
   </g>
   <g id="line2d_64">
    <path d="M 1078.8485 151.233375
L 1105.2485 151.233375
" style="fill:none;stroke:#dd8452;stroke-dasharray:8,3;stroke-dashoffset:0;stroke-width:2;"/>
   </g>
   <g id="line2d_65"/>
   <g id="text_33">
    <!-- ModeImputer -->
    <g style="fill:#262626;" transform="translate(1115.8085 155.853375)scale(0.132 -0.132)">
     <defs>
      <path d="M 40.234375 0
L 40.234375 6.546875
Q 35.296875 -1.171875 25.734375 -1.171875
Q 19.53125 -1.171875 14.328125 2.25
Q 9.125 5.671875 6.265625 11.796875
Q 3.421875 17.921875 3.421875 25.875
Q 3.421875 33.640625 6 39.96875
Q 8.59375 46.296875 13.765625 49.65625
Q 18.953125 53.03125 25.34375 53.03125
Q 30.03125 53.03125 33.6875 51.046875
Q 37.359375 49.078125 39.65625 45.90625
L 39.65625 71.578125
L 48.390625 71.578125
L 48.390625 0
z
M 12.453125 25.875
Q 12.453125 15.921875 16.640625 10.984375
Q 20.84375 6.0625 26.5625 6.0625
Q 32.328125 6.0625 36.34375 10.765625
Q 40.375 15.484375 40.375 25.140625
Q 40.375 35.796875 36.265625 40.765625
Q 32.171875 45.75 26.171875 45.75
Q 20.3125 45.75 16.375 40.96875
Q 12.453125 36.1875 12.453125 25.875
z
" id="ArialMT-100"/>
     </defs>
     <use xlink:href="#ArialMT-77"/>
     <use x="83.300781" xlink:href="#ArialMT-111"/>
     <use x="138.916016" xlink:href="#ArialMT-100"/>
     <use x="194.53125" xlink:href="#ArialMT-101"/>
     <use x="250.146484" xlink:href="#ArialMT-73"/>
     <use x="277.929688" xlink:href="#ArialMT-109"/>
     <use x="361.230469" xlink:href="#ArialMT-112"/>
     <use x="416.845703" xlink:href="#ArialMT-117"/>
     <use x="472.460938" xlink:href="#ArialMT-116"/>
     <use x="500.244141" xlink:href="#ArialMT-101"/>
     <use x="555.859375" xlink:href="#ArialMT-114"/>
    </g>
   </g>
   <g id="line2d_66">
    <path d="M 1078.8485 169.905188
L 1105.2485 169.905188
" style="fill:none;stroke:#55a868;stroke-dasharray:2,2;stroke-dashoffset:0;stroke-width:2;"/>
   </g>
   <g id="line2d_67"/>
   <g id="text_34">
    <!-- ForestImputer -->
    <g style="fill:#262626;" transform="translate(1115.8085 174.525188)scale(0.132 -0.132)">
     <use xlink:href="#ArialMT-70"/>
     <use x="61.083984" xlink:href="#ArialMT-111"/>
     <use x="116.699219" xlink:href="#ArialMT-114"/>
     <use x="150" xlink:href="#ArialMT-101"/>
     <use x="205.615234" xlink:href="#ArialMT-115"/>
     <use x="255.615234" xlink:href="#ArialMT-116"/>
     <use x="283.398438" xlink:href="#ArialMT-73"/>
     <use x="311.181641" xlink:href="#ArialMT-109"/>
     <use x="394.482422" xlink:href="#ArialMT-112"/>
     <use x="450.097656" xlink:href="#ArialMT-117"/>
     <use x="505.712891" xlink:href="#ArialMT-116"/>
     <use x="533.496094" xlink:href="#ArialMT-101"/>
     <use x="589.111328" xlink:href="#ArialMT-114"/>
    </g>
   </g>
   <g id="line2d_68">
    <path d="M 1078.8485 188.616188
L 1105.2485 188.616188
" style="fill:none;stroke:#c44e52;stroke-dasharray:6,2.5,3,2.5;stroke-dashoffset:0;stroke-width:2;"/>
   </g>
   <g id="line2d_69"/>
   <g id="text_35">
    <!-- VAEImputer_0 -->
    <g style="fill:#262626;" transform="translate(1115.8085 193.236188)scale(0.132 -0.132)">
     <defs>
      <path d="M 28.171875 0
L 0.4375 71.578125
L 10.6875 71.578125
L 29.296875 19.578125
Q 31.546875 13.328125 33.0625 7.859375
Q 34.71875 13.71875 36.921875 19.578125
L 56.25 71.578125
L 65.921875 71.578125
L 37.890625 0
z
" id="ArialMT-86"/>
      <path d="M 7.90625 0
L 7.90625 71.578125
L 59.671875 71.578125
L 59.671875 63.140625
L 17.390625 63.140625
L 17.390625 41.21875
L 56.984375 41.21875
L 56.984375 32.8125
L 17.390625 32.8125
L 17.390625 8.453125
L 61.328125 8.453125
L 61.328125 0
z
" id="ArialMT-69"/>
      <path d="M -1.515625 -19.875
L -1.515625 -13.53125
L 56.734375 -13.53125
L 56.734375 -19.875
z
" id="ArialMT-95"/>
     </defs>
     <use xlink:href="#ArialMT-86"/>
     <use x="59.324219" xlink:href="#ArialMT-65"/>
     <use x="126.023438" xlink:href="#ArialMT-69"/>
     <use x="192.722656" xlink:href="#ArialMT-73"/>
     <use x="220.505859" xlink:href="#ArialMT-109"/>
     <use x="303.806641" xlink:href="#ArialMT-112"/>
     <use x="359.421875" xlink:href="#ArialMT-117"/>
     <use x="415.037109" xlink:href="#ArialMT-116"/>
     <use x="442.820312" xlink:href="#ArialMT-101"/>
     <use x="498.435547" xlink:href="#ArialMT-114"/>
     <use x="531.736328" xlink:href="#ArialMT-95"/>
     <use x="587.351562" xlink:href="#ArialMT-48"/>
    </g>
   </g>
   <g id="line2d_70">
    <path d="M 1078.8485 207.288
L 1105.2485 207.288
" style="fill:none;stroke:#8172b3;stroke-dasharray:10,2,2,2;stroke-dashoffset:0;stroke-width:2;"/>
   </g>
   <g id="line2d_71"/>
   <g id="text_36">
    <!-- KNNImputer -->
    <g style="fill:#262626;" transform="translate(1115.8085 211.908)scale(0.132 -0.132)">
     <use xlink:href="#ArialMT-75"/>
     <use x="66.699219" xlink:href="#ArialMT-78"/>
     <use x="138.916016" xlink:href="#ArialMT-78"/>
     <use x="211.132812" xlink:href="#ArialMT-73"/>
     <use x="238.916016" xlink:href="#ArialMT-109"/>
     <use x="322.216797" xlink:href="#ArialMT-112"/>
     <use x="377.832031" xlink:href="#ArialMT-117"/>
     <use x="433.447266" xlink:href="#ArialMT-116"/>
     <use x="461.230469" xlink:href="#ArialMT-101"/>
     <use x="516.845703" xlink:href="#ArialMT-114"/>
    </g>
   </g>
   <g id="line2d_72">
    <path d="M 1078.8485 225.959813
L 1105.2485 225.959813
" style="fill:none;stroke:#937860;stroke-dasharray:6,2.5,2.5,2.5,2.5,2.5;stroke-dashoffset:0;stroke-width:2;"/>
   </g>
   <g id="line2d_73"/>
   <g id="text_37">
    <!-- VAEImputer_noise -->
    <g style="fill:#262626;" transform="translate(1115.8085 230.579813)scale(0.132 -0.132)">
     <use xlink:href="#ArialMT-86"/>
     <use x="59.324219" xlink:href="#ArialMT-65"/>
     <use x="126.023438" xlink:href="#ArialMT-69"/>
     <use x="192.722656" xlink:href="#ArialMT-73"/>
     <use x="220.505859" xlink:href="#ArialMT-109"/>
     <use x="303.806641" xlink:href="#ArialMT-112"/>
     <use x="359.421875" xlink:href="#ArialMT-117"/>
     <use x="415.037109" xlink:href="#ArialMT-116"/>
     <use x="442.820312" xlink:href="#ArialMT-101"/>
     <use x="498.435547" xlink:href="#ArialMT-114"/>
     <use x="531.736328" xlink:href="#ArialMT-95"/>
     <use x="587.351562" xlink:href="#ArialMT-110"/>
     <use x="642.966797" xlink:href="#ArialMT-111"/>
     <use x="698.582031" xlink:href="#ArialMT-105"/>
     <use x="720.798828" xlink:href="#ArialMT-115"/>
     <use x="770.798828" xlink:href="#ArialMT-101"/>
    </g>
   </g>
   <g id="line2d_74">
    <path d="M 1078.8485 244.7925
L 1105.2485 244.7925
" style="fill:none;stroke:#da8bc3;stroke-dasharray:8,2,8,2,2,2;stroke-dashoffset:0;stroke-width:2;"/>
   </g>
   <g id="line2d_75"/>
   <g id="text_38">
    <!-- GAINImputer -->
    <g style="fill:#262626;" transform="translate(1115.8085 249.4125)scale(0.132 -0.132)">
     <defs>
      <path d="M 41.21875 28.078125
L 41.21875 36.46875
L 71.53125 36.53125
L 71.53125 9.96875
Q 64.546875 4.390625 57.125 1.578125
Q 49.703125 -1.21875 41.890625 -1.21875
Q 31.34375 -1.21875 22.71875 3.296875
Q 14.109375 7.8125 9.71875 16.359375
Q 5.328125 24.90625 5.328125 35.453125
Q 5.328125 45.90625 9.6875 54.953125
Q 14.0625 64.015625 22.265625 68.40625
Q 30.46875 72.796875 41.15625 72.796875
Q 48.921875 72.796875 55.1875 70.28125
Q 61.46875 67.78125 65.03125 63.28125
Q 68.609375 58.796875 70.453125 51.5625
L 61.921875 49.21875
Q 60.296875 54.6875 57.90625 57.8125
Q 55.515625 60.9375 51.0625 62.8125
Q 46.625 64.703125 41.21875 64.703125
Q 34.71875 64.703125 29.984375 62.71875
Q 25.25 60.75 22.34375 57.515625
Q 19.4375 54.296875 17.828125 50.4375
Q 15.09375 43.796875 15.09375 36.03125
Q 15.09375 26.46875 18.390625 20.015625
Q 21.6875 13.578125 27.984375 10.453125
Q 34.28125 7.328125 41.359375 7.328125
Q 47.515625 7.328125 53.375 9.6875
Q 59.234375 12.0625 62.25 14.75
L 62.25 28.078125
z
" id="ArialMT-71"/>
     </defs>
     <use xlink:href="#ArialMT-71"/>
     <use x="77.783203" xlink:href="#ArialMT-65"/>
     <use x="144.482422" xlink:href="#ArialMT-73"/>
     <use x="172.265625" xlink:href="#ArialMT-78"/>
     <use x="244.482422" xlink:href="#ArialMT-73"/>
     <use x="272.265625" xlink:href="#ArialMT-109"/>
     <use x="355.566406" xlink:href="#ArialMT-112"/>
     <use x="411.181641" xlink:href="#ArialMT-117"/>
     <use x="466.796875" xlink:href="#ArialMT-116"/>
     <use x="494.580078" xlink:href="#ArialMT-101"/>
     <use x="550.195312" xlink:href="#ArialMT-114"/>
    </g>
   </g>
  </g>
 </g>
 <defs>
  <clipPath id="p1800580016">
   <rect height="273.448" width="324.666737" x="61.8385" y="32.552"/>
  </clipPath>
  <clipPath id="p4001228f08">
   <rect height="273.448" width="324.666737" x="402.402032" y="32.552"/>
  </clipPath>
  <clipPath id="p109e73a31a">
   <rect height="273.448" width="324.666737" x="742.965563" y="32.552"/>
  </clipPath>
 </defs>
</svg>
